<?xml version="1.0" encoding="UTF-8"?>
<svg width="12px" height="12px" viewBox="0 0 12 12" version="1.1" xmlns="http://www.w3.org/2000/svg" xmlns:xlink="http://www.w3.org/1999/xlink">
    <!-- Generator: Sketch 59.1 (86144) - https://sketch.com -->
    <title>chajian</title>
    <desc>Created with Sketch.</desc>
    <g id="页面1" stroke="none" stroke-width="1" fill="none" fill-rule="evenodd">
        <g id="首页" transform="translate(-24.000000, -94.000000)" fill="#ffffff" fill-rule="nonzero">
            <g id="编组-10" transform="translate(0.000000, 70.000000)">
                <g id="chajian" transform="translate(24.000000, 24.000000)">
                    <path d="M0.00401069519,3.61744324 L5.5223262,6.22920794 L5.5223262,11.9841545 L0.00401069519,9.36356623 L0.00401069519,3.61744324 Z M0.981818182,8.70300473 L4.54451872,10.395117 L4.54451872,6.89057158 L0.981818182,5.20367318 L0.981818182,8.70260366 L0.981818182,8.70300473 Z M5.96951872,0.132550188 L11.9578877,2.75313842 L5.97513369,5.57746997 L-2.20268248e-13,2.73308495 L5.96951872,0.132550188 Z M2.36791444,2.767978 L5.97352941,4.43923468 L9.54745989,2.78121329 L5.96751337,1.22907425 L2.36791444,2.767978 Z M11.9759358,3.61784431 L11.9759358,9.3639673 L6.46764706,11.9693149 L6.46764706,6.22920794 L11.9759358,3.61744324 L11.9759358,3.61784431 Z M7.44465241,10.3830849 L10.9989305,8.70180153 L10.9989305,5.20487639 L7.44465241,6.88936837 L7.44465241,10.3826839 L7.44465241,10.3830849 Z" id="形状"></path>
                </g>
            </g>
        </g>
    </g>
</svg>