<?xml version="1.0" encoding="UTF-8"?>
<svg width="120px" height="120px" viewBox="0 0 120 120" version="1.1" xmlns="http://www.w3.org/2000/svg" xmlns:xlink="http://www.w3.org/1999/xlink">
    <!-- Generator: Sketch 59.1 (86144) - https://sketch.com -->
    <title>ku</title>
    <desc>Created with Sketch.</desc>
    <g id="页面1" stroke="none" stroke-width="1" fill="none" fill-rule="evenodd">
        <g id="404" transform="translate(-900.000000, -317.000000)" fill="#1787EB" fill-rule="nonzero">
            <g id="ku" transform="translate(900.000000, 317.000000)">
                <path d="M101.940557,17.4825093 C78.6112163,-5.82304033 40.8121092,-5.82304033 17.4827682,17.4825093 C0.410911205,34.5679098 -4.69366396,60.2520695 4.54760028,82.5670476 C13.7785602,104.880101 35.5547663,119.423706 59.701868,119.402969 C75.5532693,119.445617 90.7643248,113.151286 101.950585,101.920243 C125.231867,78.5886906 125.231867,40.8140613 101.950585,17.4825093 L101.940557,17.4825093 Z M94.8957813,94.8754664 C75.4581861,114.298135 43.9608145,114.302571 24.5177495,94.8853778 C10.2899119,80.6479066 6.03357917,59.244536 13.7317187,40.646805 C21.4284316,22.0479002 39.5831223,9.92763088 59.7116628,9.94988687 C72.9174048,9.91196604 85.5898374,15.1572312 94.905576,24.5172575 C114.30671,43.9575806 114.30671,75.4350267 94.905576,94.8753498 L94.8957813,94.8754664 Z M79.5622924,39.5519949 C74.0669111,39.5796527 69.6343421,44.0568574 69.6617451,49.5522388 C69.6894032,55.0476202 74.1666079,59.4801891 79.6619893,59.4527861 C85.1573707,59.4251603 89.5899657,54.9479817 89.5625946,49.4526003 C89.534969,43.9572189 85.0577904,39.5246239 79.562409,39.5519949 L79.5622924,39.5519949 Z M39.8409771,59.45274 C45.3363585,59.4306986 49.7734432,54.9580096 49.7515644,49.4626283 C49.7295232,43.9672469 45.2568343,39.5301622 39.7614529,39.552041 C34.2660715,39.5741144 29.8290129,44.0468294 29.8509237,49.5422108 C29.8729973,55.0375922 34.3457124,59.4746508 39.8410938,59.45274 L39.8409771,59.45274 Z M36.1096339,82.5570196 C34.5476003,84.9650187 36.2588876,88.1988106 39.0947085,88.1988106 L39.3634818,88.1988106 C40.5143743,88.2149483 41.5971968,87.6548752 42.2490928,86.7062733 C46.0501821,80.8552161 52.5355874,77.3041508 59.5127355,77.2536147 C66.7067654,77.2536147 73.0549464,80.9351679 76.8560191,86.6963619 C77.5033827,87.6524608 78.5869275,88.2203739 79.7415135,88.2088979 L79.91059,88.2088979 C82.7364995,88.2088979 84.4480201,84.9650187 82.8758419,82.5570196 C77.7813923,74.75618 69.2142281,69.6217351 59.5127355,69.6217351 C49.7813923,69.6217351 41.2043167,74.7362407 36.1097505,82.5570196 L36.1096339,82.5570196 Z" id="形状"></path>
            </g>
        </g>
    </g>
</svg>