<?xml version="1.0" encoding="UTF-8"?>
<svg width="12px" height="12px" viewBox="0 0 12 12" version="1.1" xmlns="http://www.w3.org/2000/svg" xmlns:xlink="http://www.w3.org/1999/xlink">
    <!-- Generator: Sketch 59.1 (86144) - https://sketch.com -->
    <title>app</title>
    <desc>Created with Sketch.</desc>
    <g id="页面1" stroke="none" stroke-width="1" fill="none" fill-rule="evenodd" opacity="0.8">
        <g id="首页" transform="translate(-24.000000, -164.000000)" fill="#1787EB" fill-rule="nonzero">
            <g id="编组-9" transform="translate(0.000000, 140.000000)">
                <g id="app" transform="translate(24.000000, 24.000000)">
                    <path d="M9.60379877,11.8060644 L8.71556783,11.8060644 C7.39591043,11.7814794 6.35541134,10.748911 6.35541134,9.47049288 L6.35541134,6.91365668 C6.35541134,6.64322208 6.55843555,6.39737245 6.81221582,6.34820252 C6.8883499,6.32361755 6.96448398,6.29903259 7.04061807,6.29903259 L9.57842074,6.29903259 C10.8980781,6.32361755 11.9385772,7.35618602 11.9131992,8.61001916 L11.9131992,9.47049288 C11.9385772,10.748911 10.8980781,11.7814794 9.60379877,11.8060644 Z M7.5481786,7.45452587 L7.5481786,9.47049288 C7.5481786,10.1097019 8.05573913,10.6014012 8.71556783,10.6259862 L9.60379877,10.6259862 C10.2636275,10.6259862 10.771188,10.1097019 10.771188,9.47049288 L10.771188,8.61001916 C10.771188,7.9708101 10.2636275,7.47911084 9.60379877,7.45452587 L7.5481786,7.45452587 L7.5481786,7.45452587 Z M3.23391403,11.8060644 L2.3456831,11.8060644 C1.05140372,11.7814794 0.0109046187,10.748911 0.0109046187,9.47049288 L0.0109046187,8.61001916 C0.0109046187,7.33160105 1.05140372,6.29903259 2.3456831,6.29903259 L4.88348578,6.29903259 C4.95961987,6.29903259 5.03575395,6.32361755 5.11188802,6.34820252 C5.39104632,6.39737245 5.56869251,6.64322208 5.5686925,6.91365668 L5.5686925,9.47049288 C5.59407053,10.748911 4.55357142,11.7814794 3.23391403,11.8060644 M2.3456831,7.45452587 C1.6858544,7.45452587 1.17829385,7.9708101 1.17829385,8.61001916 L1.17829385,9.47049288 C1.17829385,10.1097019 1.68585438,10.6014012 2.3456831,10.6259862 L3.23391403,10.6259862 C3.89374273,10.6259862 4.40130327,10.1097019 4.40130327,9.47049288 L4.40130327,7.45452587 L2.3456831,7.45452587 L2.3456831,7.45452587 Z M4.88348578,5.48772879 L2.3456831,5.48772879 C1.05140372,5.48772879 0.0109046187,4.45516031 0.0109046187,3.17674222 L0.0109046187,2.3162685 C0.0109046187,1.03785039 1.05140372,0.00528193056 2.3456831,0.00528193056 L3.23391403,0.00528193056 C4.55357143,0.00528193056 5.59407053,1.03785039 5.59407053,2.3162685 L5.59407053,4.8731047 C5.59407053,5.1435393 5.39104632,5.38938893 5.13726605,5.43855887 C5.03575394,5.4877288 4.95961987,5.51231376 4.88348578,5.48772879 M2.3456831,1.16077521 C1.6858544,1.16077521 1.17829385,1.67705944 1.17829385,2.3162685 L1.17829385,3.17674222 C1.17829385,3.81595127 1.68585438,4.3322355 2.3456831,4.3322355 L4.37592524,4.3322355 L4.37592524,2.3162685 C4.37592524,1.67705944 3.86836471,1.16077521 3.20853601,1.16077521 L2.3456831,1.16077521 Z M9.60379877,5.48772879 L7.06599608,5.48772879 C6.989862,5.48772879 6.91372791,5.46314382 6.83759384,5.43855887 C6.55843555,5.38938894 6.38078937,5.14353931 6.38078937,4.8731047 L6.38078937,2.3162685 C6.38078937,1.03785039 7.42128847,0.00528193056 8.71556783,0.00528193056 L9.60379877,0.00528193056 C10.8980781,0.00528193056 11.9385772,1.03785039 11.9385772,2.3162685 L11.9385772,3.17674222 C11.9385772,4.45516032 10.8980781,5.48772879 9.60379877,5.48772879 Z M7.5481786,4.3322355 L9.57842074,4.3322355 C10.2382494,4.3322355 10.74581,3.81595127 10.74581,3.17674222 L10.74581,2.3162685 C10.74581,1.67705944 10.2382495,1.18536018 9.57842074,1.16077521 L8.6901898,1.16077521 C8.0303611,1.16077521 7.52280057,1.67705944 7.52280057,2.3162685 L7.5481786,4.3322355 L7.5481786,4.3322355 Z" id="形状"></path>
                </g>
            </g>
        </g>
    </g>
</svg>