<?xml version="1.0" encoding="UTF-8"?>
<svg width="16px" height="16px" viewBox="0 0 16 16" version="1.1" xmlns="http://www.w3.org/2000/svg" xmlns:xlink="http://www.w3.org/1999/xlink">
    <!-- Generator: Sketch 59.1 (86144) - https://sketch.com -->
    <title>shanchu</title>
    <desc>Created with Sketch.</desc>
    <g id="页面1" stroke="none" stroke-width="1" fill="none" fill-rule="evenodd">
        <g id="配置专属sdk" transform="translate(-584.000000, -771.000000)" fill="#D81E06" fill-rule="nonzero">
            <g id="shanchu" transform="translate(584.000000, 771.000000)">
                <path d="M7.70760401,15.6674569 C3.46842181,15.6674569 0,12.169606 0,7.83372844 C0,3.49785083 3.46842181,0 7.70760401,0 C11.9467862,0 15.415208,3.49785083 15.415208,7.83372844 C15.415208,12.169606 11.9467862,15.6674569 7.70760401,15.6674569 Z M7.70760401,1.09307838 C4.02897482,1.09307838 1.0510369,4.11726192 1.0510369,7.83372844 C1.0510369,11.550195 4.02897482,14.5743785 7.70760401,14.5743785 C11.3862332,14.5743785 14.3641711,11.550195 14.3641711,7.83372844 C14.3641711,4.11726192 11.3862332,1.09307838 7.70760401,1.09307838 Z" id="形状"></path>
                <path d="M5.18511543,7.46936898 L10.5804382,7.46936898 C10.8607147,7.46936898 11.1059567,7.7244206 11.1059567,8.01590817 C11.1059567,8.30739575 10.8607148,8.56244736 10.5804382,8.56244736 L5.18511543,8.56244736 C4.90483892,8.56244736 4.65959696,8.30739575 4.65959696,8.01590817 C4.65959696,7.7244206 4.9048389,7.46936898 5.18511543,7.46936898 Z" id="路径"></path>
            </g>
        </g>
    </g>
</svg>