<?xml version="1.0" encoding="UTF-8"?>
<svg width="16px" height="15px" viewBox="0 0 16 15" version="1.1" xmlns="http://www.w3.org/2000/svg" xmlns:xlink="http://www.w3.org/1999/xlink">
    <!-- Generator: Sketch 59.1 (86144) - https://sketch.com -->
    <title>xiazai备份</title>
    <desc>Created with Sketch.</desc>
    <g id="页面1" stroke="none" stroke-width="1" fill="none" fill-rule="evenodd">
        <g id="ddxf-dapp库" transform="translate(-984.000000, -360.000000)" fill-rule="nonzero">
            <g id="xiazai备份" transform="translate(984.000000, 360.500000)">
                <path d="M4.64675926,10.2494136 L7.07342593,12.4745988 C7.44179919,12.8123503 8.00727489,12.8123503 8.37564815,12.4745988 L10.8028086,10.2494136 L14.9514506,10.2494136 C15.4837963,10.2494136 15.9149074,10.6810185 15.9149074,11.2133642 L15.9149074,13.4913889 C15.9149074,14.0234914 15.4835531,14.4548457 14.9514506,14.4548457 L0.979598765,14.4548457 C0.447881906,14.4545732 0.0169082682,14.0235996 0.0166358025,13.4918827 L0.0166358025,11.2133642 C0.0166358025,10.6810185 0.447746914,10.2494136 0.979598765,10.2494136 L4.64675926,10.2494136 L4.64675926,10.2494136 Z" id="路径" fill="#F2F2F2"></path>
                <path d="M9.65169753,6.35064815 L12.2675,6.35064815 C12.466196,6.35065046 12.6445273,6.4725867 12.716623,6.65774152 C12.7887187,6.84289634 12.7398014,7.05331878 12.5934259,7.18768519 L8.05021605,11.3521296 C7.86601994,11.5207373 7.58354796,11.5207373 7.39935185,11.3521296 L2.85614198,7.18768519 C2.70976655,7.05331878 2.66084922,6.84289634 2.7329449,6.65774152 C2.80504059,6.4725867 2.98337191,6.35065046 3.1820679,6.35064815 L5.79737654,6.35064815 L5.79737654,0.965462963 C5.79737654,0.433117284 6.22898148,0.00151234568 6.76132716,0.00151234568 L8.68824074,0.00151234568 C9.22058642,0.00151234568 9.65169753,0.433117284 9.65169753,0.965462963 L9.65169753,6.35064815 Z" id="路径" fill="#FFFFFF"></path>
            </g>
        </g>
    </g>
</svg>