<?xml version="1.0" encoding="UTF-8"?>
<svg width="18px" height="16px" viewBox="0 0 18 16" version="1.1" xmlns="http://www.w3.org/2000/svg" xmlns:xlink="http://www.w3.org/1999/xlink">
    <!-- Generator: Sketch 59.1 (86144) - https://sketch.com -->
    <title>shezhi-2备份</title>
    <desc>Created with Sketch.</desc>
    <g id="页面1" stroke="none" stroke-width="1" fill="none" fill-rule="evenodd">
        <g id="ddxf插件库" transform="translate(-677.000000, -374.000000)" fill="#000000" fill-rule="nonzero">
            <g id="shezhi-2备份" transform="translate(677.000000, 374.000000)">
                <path d="M12.3268889,1.27196875 C12.3517333,1.27196875 12.3783111,1.28641319 12.3904444,1.30663542 L16.0552889,7.63907986 C16.0651111,7.65583542 16.0651111,7.67952429 16.0558667,7.69570208 L12.3910222,14.0287243 C12.3794667,14.0489465 12.3523111,14.0639687 12.3268889,14.0639687 L5.00702223,14.0639687 C4.9816,14.0639687 4.95502223,14.0495243 4.94346667,14.0298799 L1.27804444,7.69570208 C1.2688,7.67952431 1.2688,7.65583542 1.27862223,7.63907986 L4.94346667,1.30605764 C4.95502223,1.28641321 4.9816,1.27196875 5.00702223,1.27196875 L12.3268889,1.27196875 M12.3268889,0.000857644531 L5.00702223,0.000857644531 C4.52804446,0.000857644531 4.082,0.257390978 3.84337777,0.669346522 L0.178533333,7.00294652 C-0.0589333333,7.41316875 -0.0589333333,7.92334652 0.177955561,8.33299098 L3.84337777,14.666591 C4.082,15.0791243 4.52746667,15.3350799 5.00702223,15.3350799 L12.3268889,15.3350799 C12.8052889,15.3350799 13.2513333,15.0791243 13.4905333,14.666591 L17.1553778,8.33241319 C17.3922667,7.92276875 17.3922667,7.41316875 17.1553778,7.00294652 L13.4899556,0.66876875 C13.2507556,0.256813189 12.8047111,0.000857644531 12.3268889,0.000857644531 Z" id="形状"></path>
                <path d="M8.66666667,5.77227986 C9.71186667,5.77227986 10.5623556,6.62276875 10.5623556,7.66796875 C10.5623556,8.71316875 9.71186667,9.56365764 8.66666667,9.56365764 C7.62146667,9.56365764 6.77097777,8.71316875 6.77097777,7.66796875 C6.77097777,6.62276875 7.62146667,5.77227986 8.66666667,5.77227986 M8.66666667,4.50116875 C6.92062223,4.50116875 5.49986667,5.92192431 5.49986667,7.66796875 C5.49986667,9.41401319 6.92062223,10.8347688 8.66666667,10.8347688 C10.4127111,10.8347688 11.8334667,9.41401319 11.8334667,7.66796875 C11.8334667,5.92192431 10.4127111,4.50116875 8.66666667,4.50116875 Z" id="形状"></path>
            </g>
        </g>
    </g>
</svg>