<?xml version="1.0" encoding="UTF-8"?>
<svg width="84px" height="14px" viewBox="0 0 84 14" version="1.1" xmlns="http://www.w3.org/2000/svg" xmlns:xlink="http://www.w3.org/1999/xlink">
    <!-- Generator: Sketch 59.1 (86144) - https://sketch.com -->
    <title>Authsaas备份 3</title>
    <desc>Created with Sketch.</desc>
    <g id="页面1" stroke="none" stroke-width="1" fill="none" fill-rule="evenodd">
        <g id="ddxf-dapp库" transform="translate(-38.000000, -23.000000)" fill="#1787EB" fill-rule="nonzero">
            <path d="M38.1797176,36.7843389 L40.7317073,36.7843389 L41.5404365,34.4480103 L46.6264442,34.4480103 L47.4351733,36.7843389 L49.987163,36.7843389 L45.3145058,23.6649551 L42.8523748,23.6649551 L38.1797176,36.7843389 Z M44.0924262,27.1335045 L45.817715,32.1116816 L42.3671374,32.1116816 L44.0924262,27.1335045 Z M60.4287548,26.2708601 L58.0025674,26.2708601 L58.0025674,32.0397946 C58.0025674,33.8908858 57.0141207,34.8973042 55.6662388,34.8973042 C54.1386393,34.8973042 53.4197689,33.8908858 53.4197689,32.2554557 L53.4197689,26.2708601 L50.957638,26.2708601 L50.957638,32.5070603 C50.957638,35.36457 52.4852375,37 55.0012837,37 C56.3491656,37 57.3555841,36.4608472 58.0205392,35.5802311 L58.0205392,36.7843389 L60.4287548,36.7843389 L60.4287548,26.2708601 Z M61.4531451,28.4454429 L63.2503209,28.4454429 L63.2503209,32.3992298 C63.2503209,35.6723363 64.1980114,36.7399087 67.2912874,36.7829703 L67.8331194,36.7843389 L67.8331194,34.5019255 L67.5106189,34.4984769 C65.9323707,34.4613942 65.6944801,34.1032793 65.6944801,32.381258 L65.6944801,28.4454429 L67.8331194,28.4454429 L67.8331194,26.2708601 L65.6944801,26.2708601 L65.6944801,23 L63.2503209,24.6713736 L63.2503209,26.2708601 L61.4531451,26.2708601 L61.4531451,28.4454429 Z M69.0012837,36.7843389 L71.4454429,36.7843389 L71.4454429,31.0154044 C71.4454429,29.182285 72.5237484,28.1578947 73.8896021,28.1578947 C75.4711168,28.1578947 76.2618742,29.1643132 76.2618742,30.817715 L76.2618742,36.7843389 L78.7419769,36.7843389 L78.7419769,30.5481386 C78.7419769,27.690629 77.2143774,26.055199 74.5725289,26.055199 C73.224647,26.055199 72.1463415,26.6123235 71.4274711,27.5288832 L71.4274711,23.4852375 L69.0012837,23.4852375 L69.0012837,36.7843389 Z M84.0795892,37 C87.0808729,37 88.3928113,35.0410783 88.3928113,33.5673941 C88.3928113,31.3568678 86.4159178,30.745828 84.690629,30.4043646 L83.9343587,30.2372938 C82.8465703,29.9846272 82.2824134,29.7612882 82.2824134,29.182285 C82.2824134,28.5892169 82.8215661,28.0500642 83.9717587,28.0500642 C84.9781772,28.0500642 85.7689345,28.5173299 86.2002567,29.254172 L88.267009,28.21181 C87.4582798,26.8639281 86.1103979,26.0372272 83.9717587,26.0372272 C81.4736842,26.0372272 79.8382542,27.5648267 79.8382542,29.254172 C79.8382542,31.3346674 81.5098143,31.9664773 83.2047856,32.3482555 L84.4530648,32.6179798 C85.3275032,32.8159499 85.9845956,33.0417202 85.9845956,33.6213094 C85.9845956,34.322208 85.3915276,34.8973042 84.1874198,34.8973042 C83.0372272,34.8973042 82.156611,34.3581515 81.6534018,33.3697047 L79.406932,34.4480103 C80.2516046,36.1014121 81.7252888,37 84.0795892,37 Z M94.2695764,37 C95.6534018,37 96.9114249,36.406932 97.6842105,35.4184852 L97.6842105,36.7843389 L100.110398,36.7843389 L100.110398,26.2708601 L97.6842105,26.2708601 L97.6842105,27.5288832 C96.9114249,26.6123235 95.6893453,26.055199 94.3055199,26.055199 C91.6456996,26.055199 89.0937099,28.0500642 89.0937099,31.5365854 C89.0937099,34.987163 91.7355584,37 94.2695764,37 Z M94.6649551,34.7715019 C92.8677792,34.7715019 91.4839538,33.3337612 91.4839538,31.5006418 C91.4839538,29.6854942 92.8677792,28.2657253 94.6649551,28.2657253 C96.4801027,28.2657253 97.8100128,29.703466 97.8100128,31.5006418 C97.8100128,33.3157895 96.4801027,34.7715019 94.6649551,34.7715019 Z M106.328626,37 C107.712452,37 108.970475,36.406932 109.743261,35.4184852 L109.743261,36.7843389 L112.169448,36.7843389 L112.169448,26.2708601 L109.743261,26.2708601 L109.743261,27.5288832 C108.970475,26.6123235 107.748395,26.055199 106.36457,26.055199 C103.70475,26.055199 101.15276,28.0500642 101.15276,31.5365854 C101.15276,34.987163 103.794608,37 106.328626,37 Z M106.724005,34.7715019 C104.926829,34.7715019 103.543004,33.3337612 103.543004,31.5006418 C103.543004,29.6854942 104.926829,28.2657253 106.724005,28.2657253 C108.539153,28.2657253 109.869063,29.703466 109.869063,31.5006418 C109.869063,33.3157895 108.539153,34.7715019 106.724005,34.7715019 Z M117.50706,37 C115.15276,37 113.679076,36.1014121 112.834403,34.4480103 L115.080873,33.3697047 C115.584082,34.3581515 116.464698,34.8973042 117.614891,34.8973042 C118.818999,34.8973042 119.412067,34.322208 119.412067,33.6213094 C119.412067,32.9773214 118.600842,32.7701469 117.58161,32.5525721 L116.632257,32.3482555 C114.937285,31.9664773 113.265725,31.3346674 113.265725,29.254172 C113.265725,27.5648267 114.901155,26.0372272 117.39923,26.0372272 C119.537869,26.0372272 120.885751,26.8639281 121.69448,28.21181 L119.627728,29.254172 C119.196406,28.5173299 118.405648,28.0500642 117.39923,28.0500642 C116.249037,28.0500642 115.709884,28.5892169 115.709884,29.182285 C115.709884,29.8831836 116.536585,30.0629012 118.1181,30.4043646 C119.843389,30.745828 121.820282,31.3568678 121.820282,33.5673941 C121.820282,35.0410783 120.508344,37 117.50706,37 Z" id="Authsaas备份-3"></path>
        </g>
    </g>
</svg>