<?xml version="1.0" encoding="UTF-8"?>
<svg width="14px" height="14px" viewBox="0 0 14 14" version="1.1" xmlns="http://www.w3.org/2000/svg" xmlns:xlink="http://www.w3.org/1999/xlink">
    <!-- Generator: Sketch 59.1 (86144) - https://sketch.com -->
    <title>Fill 1</title>
    <desc>Created with Sketch.</desc>
    <g id="页面1" stroke="none" stroke-width="1" fill="none" fill-rule="evenodd">
        <g id="登陆" transform="translate(-1449.000000, -108.000000)" fill="#1787EB">
            <g id="编组-3" transform="translate(1449.000000, 102.000000)">
                <path d="M13.4459017,10.2782155 C12.3865674,7.7683333 9.90107306,6 7.00004974,6 C3.13735716,6 0,9.12919573 0,13.0000398 C0,16.8626274 3.12920017,20 7.00004974,20 C10.8707998,20 14,16.8707844 14,13.0000398 C14,11.7042939 13.4459017,10.2782155 13.4459017,10.2782155 Z M1.04309988,13.0000398 C1.04309988,12.258471 1.18158965,11.5413334 1.42608048,10.8894516 C1.74392454,11.0686664 2.15947341,11.1012943 2.15947341,11.459883 C2.15947341,12.6332941 2.20027825,13.8964121 3.33296575,13.912726 C3.36553402,13.912726 3.96043718,14.1245687 4.24565328,14.8254123 C4.34341778,15.0699027 4.73457526,14.8254123 5.15834081,14.8254123 C5.37020368,14.8254123 5.15834081,15.1676671 5.15834081,15.901059 C5.15834081,16.6344708 6.82075513,17.7590793 6.82075513,17.7590793 C6.81259814,18.2398237 6.83706911,18.6391177 6.86963738,18.9488242 C3.64259313,18.8917651 1.04309988,16.2514907 1.04309988,13.0000398 Z M8.43428721,18.7776868 C8.67052158,17.8323528 8.78461995,17.2945692 9.27360162,16.8952752 C9.98260316,16.3166868 9.36320914,15.6647255 8.81726781,15.7380985 C8.38532538,15.8032946 8.66244417,15.2410202 8.27938399,15.2083923 C7.90456038,15.1839811 7.39934431,14.4668236 6.86148039,14.2141761 C6.5762643,14.0838435 6.28289121,13.7334317 5.84287137,13.7171177 C5.45171389,13.7008038 4.87312471,14.0349613 4.87312471,13.7823139 C4.87312471,12.959235 4.78345751,12.3725692 4.76720322,12.1362357 C4.75088924,11.9406274 4.63679086,12.0710396 5.16651769,12.0873536 C5.45171389,12.095431 5.31316444,11.5331566 5.60653753,11.5087652 C5.88357674,11.4924512 6.55995032,11.7613331 6.73922503,11.6472548 C6.89410835,11.5413334 7.91273727,14.1734509 7.91273727,12.0791966 C7.91273727,11.8347061 7.78232491,11.4028439 7.91273727,11.1665103 C8.45052161,10.2374903 8.94766027,9.47962745 8.90685542,9.36552924 C8.88246404,9.3003331 8.35275711,9.25145092 7.94528564,9.38186309 C7.80679588,9.4225684 7.98601091,9.63443097 7.7904819,9.68339273 C7.02444113,9.84635323 6.36440142,9.48778443 6.60073527,9.14552958 C6.83706911,8.79509786 7.71712868,8.99888303 7.7904819,8.29803948 C7.83120716,7.90690245 7.87193242,7.44239241 7.89640339,7.10013756 C10.0233284,7.41792148 11.7916443,8.86031389 12.5495281,10.8079216 C10.5285445,12.2828823 11.0419374,13.3178237 11.7101341,13.904569 C12.0605465,14.2141761 12.3946448,14.6868431 12.6147244,15.020941 C11.9138997,16.8707844 10.3655838,18.2968628 8.43428721,18.7776868 Z" id="Fill-1"></path>
            </g>
        </g>
    </g>
</svg>