<?xml version="1.0" encoding="UTF-8"?>
<svg width="178px" height="28px" viewBox="0 0 178 28" version="1.1" xmlns="http://www.w3.org/2000/svg" xmlns:xlink="http://www.w3.org/1999/xlink">
    <!-- Generator: Sketch 59.1 (86144) - https://sketch.com -->
    <title>AuthSaas备份 2</title>
    <desc>Created with Sketch.</desc>
    <g id="页面1" stroke="none" stroke-width="1" fill="none" fill-rule="evenodd">
        <g id="登陆" transform="translate(-380.000000, -100.000000)" fill="#FFFFFF" fill-rule="nonzero">
            <path d="M380,127.568678 L385.103979,127.568678 L386.721438,122.896021 L396.893453,122.896021 L398.510911,127.568678 L403.614891,127.568678 L394.269576,101.32991 L389.345315,101.32991 L380,127.568678 Z M391.825417,108.267009 L395.275995,118.223363 L388.37484,118.223363 L391.825417,108.267009 Z M424.498074,106.54172 L419.6457,106.54172 L419.6457,118.079589 C419.6457,121.781772 417.668806,123.794608 414.973042,123.794608 C411.917843,123.794608 410.480103,121.781772 410.480103,118.510911 L410.480103,106.54172 L405.555841,106.54172 L405.555841,119.014121 C405.555841,124.72914 408.61104,128 413.643132,128 C416.338896,128 418.351733,126.921694 419.681643,125.160462 L419.681643,127.568678 L424.498074,127.568678 L424.498074,106.54172 Z M426.546855,110.890886 L430.141207,110.890886 L430.141207,118.79846 C430.141207,125.350244 432.039815,127.483449 438.238944,127.566156 L439.306804,127.568678 L439.306804,123.003851 C435.675481,123.003851 435.062945,122.461148 435.030907,119.069254 L435.029525,110.890886 L439.306804,110.890886 L439.306804,106.54172 L435.029525,106.54172 L435.029525,100 L430.141207,103.342747 L430.141207,106.54172 L426.546855,106.54172 L426.546855,110.890886 Z M441.643132,127.568678 L446.531451,127.568678 L446.531451,116.030809 C446.531451,112.36457 448.688062,110.315789 451.419769,110.315789 C454.582798,110.315789 456.164313,112.328626 456.164313,115.63543 L456.164313,127.568678 L461.124519,127.568678 L461.124519,115.096277 C461.124519,109.381258 458.06932,106.110398 452.785623,106.110398 C450.089859,106.110398 447.933248,107.224647 446.495507,109.057766 L446.495507,100.970475 L441.643132,100.970475 L441.643132,127.568678 Z M481.648267,127.928113 C487.39923,127.928113 490.706033,123.902439 490.706033,119.768935 C490.706033,115.001689 487.092963,113.331361 483.687033,112.190769 L481.578378,111.491091 C479.412965,110.756578 477.766367,110.030904 477.766367,108.302953 C477.766367,106.613607 479.02439,105.319641 481.432606,105.319641 C483.481386,105.319641 485.062901,106.146341 486.17715,107.835687 L490.202824,104.780488 C488.082157,102.587933 485.602054,100.970475 481.396662,100.970475 C476.36457,100.970475 472.698331,104.277279 472.698331,108.48267 C472.698331,113.478819 476.580231,114.808729 480.138639,115.958922 L481.599491,116.416509 C483.783101,117.125298 485.602054,117.931964 485.602054,119.732991 C485.602054,121.56611 484.200257,123.255456 481.612323,123.255456 C479.204108,123.255456 477.191271,121.997433 475.861361,119.697047 L471.404365,123.219512 C473.81258,125.915276 476.939666,127.928113 481.648267,127.928113 Z M502.603338,128 C505.370988,128 507.887035,126.813864 509.432606,124.83697 L509.432606,127.568678 L514.284981,127.568678 L514.284981,106.54172 L509.432606,106.54172 L509.432606,109.057766 C507.887035,107.224647 505.442875,106.110398 502.675225,106.110398 C497.355584,106.110398 492.251605,110.100128 492.251605,117.073171 C492.251605,123.974326 497.535302,128 502.603338,128 Z M503.394095,123.543004 C499.799743,123.543004 497.032092,120.667522 497.032092,117.001284 C497.032092,113.370988 499.799743,110.531451 503.394095,110.531451 C507.02439,110.531451 509.684211,113.406932 509.684211,117.001284 C509.684211,120.631579 507.02439,123.543004 503.394095,123.543004 Z M526.721438,128 C529.489089,128 532.005135,126.813864 533.550706,124.83697 L533.550706,127.568678 L538.403081,127.568678 L538.403081,106.54172 L533.550706,106.54172 L533.550706,109.057766 C532.005135,107.224647 529.560976,106.110398 526.793325,106.110398 C521.473684,106.110398 516.369705,110.100128 516.369705,117.073171 C516.369705,123.974326 521.653402,128 526.721438,128 Z M527.512195,123.543004 C523.917843,123.543004 521.150193,120.667522 521.150193,117.001284 C521.150193,113.370988 523.917843,110.531451 527.512195,110.531451 C531.14249,110.531451 533.802311,113.406932 533.802311,117.001284 C533.802311,120.631579 531.14249,123.543004 527.512195,123.543004 Z M549.078306,128 C544.369705,128 541.422336,126.202824 539.732991,122.896021 L544.225931,120.739409 C545.232349,122.716303 546.993582,123.794608 549.293967,123.794608 C551.702182,123.794608 552.888318,122.644416 552.888318,121.242619 C552.888318,120.067985 551.538855,119.619985 549.755072,119.22015 L547.380238,118.708081 C543.972724,117.945687 540.595635,116.690421 540.595635,112.508344 C540.595635,109.129653 543.866496,106.074454 548.862644,106.074454 C553.139923,106.074454 555.835687,107.727856 557.453145,110.42362 L553.319641,112.508344 C552.456996,111.03466 550.875481,110.100128 548.862644,110.100128 C546.562259,110.100128 545.483954,111.178434 545.483954,112.36457 C545.483954,113.766367 547.137356,114.125802 550.300385,114.808729 L550.863645,114.92462 C554.166847,115.63312 557.70475,116.952711 557.70475,121.134788 C557.70475,124.082157 555.080873,128 549.078306,128 Z" id="AuthSaas备份-2"></path>
        </g>
    </g>
</svg>