<?xml version="1.0" encoding="UTF-8"?>
<svg width="20px" height="19px" viewBox="0 0 20 19" version="1.1" xmlns="http://www.w3.org/2000/svg" xmlns:xlink="http://www.w3.org/1999/xlink">
    <!-- Generator: Sketch 59.1 (86144) - https://sketch.com -->
    <title>编组 7备份</title>
    <desc>Created with Sketch.</desc>
    <g id="页面1" stroke="none" stroke-width="1" fill="none" fill-rule="evenodd">
        <g id="ddxf插件库" transform="translate(-120.000000, -728.000000)">
            <g id="编组-7备份" transform="translate(130.000000, 738.000000) scale(-1, 1) translate(-130.000000, -738.000000) translate(100.000000, 708.000000)">
                <rect id="矩形" x="0" y="0" width="60" height="60"></rect>
                <g id="zhankai1" transform="translate(30.000000, 30.000000) scale(-1, 1) translate(-30.000000, -30.000000) translate(20.000000, 20.869565)" fill="#FFFFFF" fill-rule="nonzero">
                    <path d="M0,0.0139038477 L19.9386973,0.0139038477 L19.9386973,2.24378891 L0,2.24378891 L0,0.0139038477 Z M0,15.6077736 L19.9386973,15.6077736 L19.9386973,17.8376587 L0,17.8376587 L0,15.6077736 Z M0,10.4123713 L12.1149425,10.4123713 L12.1149425,12.6422563 L0,12.6422563 L0,10.4123713 Z M0,5.20930615 L12.1149425,5.20930615 L12.1149425,7.43919121 L0,7.43919121 L0,5.20930615 Z M14.4444445,4.97175826 L20,9.42386555 L14.4444445,12.8798042 L14.4444445,4.97175826 Z" id="形状"></path>
                </g>
            </g>
        </g>
    </g>
</svg>