<?xml version="1.0" encoding="UTF-8"?>
<svg width="30px" height="30px" viewBox="0 0 30 30" version="1.1" xmlns="http://www.w3.org/2000/svg" xmlns:xlink="http://www.w3.org/1999/xlink">
    <!-- Generator: Sketch 59.1 (86144) - https://sketch.com -->
    <title>编组 8</title>
    <desc>Created with Sketch.</desc>
    <g id="页面1" stroke="none" stroke-width="1" fill="none" fill-rule="evenodd">
        <g id="首页" transform="translate(-15.000000, -15.000000)">
            <g id="编组-2">
                <g id="编组-8" transform="translate(15.000000, 15.000000)">
                    <circle id="椭圆形" fill="#1787EB" cx="15" cy="15" r="15"></circle>
                    <g id="编组" transform="translate(5.000000, 9.166667)" fill="#FFFFFF">
                        <polygon id="矩形" transform="translate(16.967820, 3.424718) rotate(-40.000000) translate(-16.967820, -3.424718) " points="16.0401377 0.000212303006 17.8941293 0.000587089535 17.8955014 6.84922362 16.0415099 6.84884884"></polygon>
                        <polygon id="矩形备份" transform="translate(16.800129, 7.687637) scale(1, -1) rotate(-40.000000) translate(-16.800129, -7.687637) " points="15.8723945 4.00522609 17.726386 4.00560061 17.7278626 11.3700476 15.873871 11.3696731"></polygon>
                        <polygon id="矩形" transform="translate(3.032945, 3.425413) scale(-1, 1) rotate(-40.000000) translate(-3.032945, -3.425413) " points="2.10526316 2.21404998e-11 3.95925472 0.000374885864 3.96062689 6.85082622 2.10663533 6.85045134"></polygon>
                        <polygon id="矩形备份" transform="translate(3.198706, 7.684641) scale(-1, -1) rotate(-40.000000) translate(-3.198706, -7.684641) " points="2.27097186 3.9983205 4.12496342 3.99869541 4.12643999 11.3709624 2.27244843 11.3705875"></polygon>
                        <polygon id="矩形" transform="translate(10.000674, 5.610923) rotate(15.000000) translate(-10.000674, -5.610923) " points="9.07405441 0.646024055 10.9283083 0.645834624 10.9272935 10.5758221 9.0730396 10.5760116"></polygon>
                    </g>
                </g>
            </g>
        </g>
    </g>
</svg>